<?xml version="1.0" encoding="utf-8"?><svg viewBox="0 0 32 32" xmlns="http://www.w3.org/2000/svg" xmlns:xlink="http://www.w3.org/1999/xlink"><style>:root>svg{display:none}:root>svg:target{display:block}</style><svg viewBox="0 0 32 32" id="bell" xmlns="http://www.w3.org/2000/svg"><path d="M22 12a6 6 0 10-12 0c0 7-3 9-3 9h18s-3-2-3-9zm-4.27 13a1.999 1.999 0 01-3.46 0"/></svg><svg viewBox="0 0 16 15" id="heart" xmlns="http://www.w3.org/2000/svg"><path d="M8 14.012l-1.088-.99C3.05 9.52.5 7.21.5 4.376A4.085 4.085 0 014.625.25C5.93.25 7.183.858 8 1.817A4.491 4.491 0 0111.375.25 4.085 4.085 0 0115.5 4.375c0 2.835-2.55 5.145-6.412 8.655L8 14.012z"/></svg><svg class="cmr-2" viewBox="0 0 18 17" id="share" xmlns="http://www.w3.org/2000/svg"><path clip-rule="evenodd" d="M9.725 3.143V11H8.242V3.143L6.016 5.5 5 4.484 8.984 0 13 4.484 11.95 5.5 9.726 3.143zM0 8v9h18V8h-2v7H2V8H0z" fill-rule="evenodd"/></svg><svg viewBox="0 0 18 18" id="star" xmlns="http://www.w3.org/2000/svg"><path d="M9 12.953l4.635 2.797-1.23-5.273L16.5 6.93l-5.393-.457L9 1.5 6.893 6.473 1.5 6.93l4.095 3.547-1.23 5.273L9 12.953z"/></svg></svg>